<svg class="svg-icon" style="width: 1em; height: 1em;vertical-align: middle;fill: currentColor;overflow: hidden;" viewBox="0 0 1024 1024" version="1.1" xmlns="http://www.w3.org/2000/svg"><path d="M519 127.9c-217.2 0-393.3 176.1-393.3 393.3s176 393.3 393.3 393.3 393.3-176.1 393.3-393.3S736.2 127.9 519 127.9zM739.3 523c0 9.9-8.1 18-18 18H361l144 144c7.3 7.3 7.3 19.2 0 26.5-7.3 7.3-19.2 7.3-26.5 0L305.6 538.6c-0.5-0.4-1-0.8-1.5-1.3-3.7-3.7-5.5-8.5-5.5-13.3 0-4.8 1.8-9.7 5.5-13.3 0.5-0.5 1-0.9 1.5-1.3L484 330.9c7.3-7.3 19.2-7.3 26.5 0 7.3 7.3 7.3 19.2 0 26.5L362.9 505h358.4c9.9 0 18 8.1 18 18z" fill="#263554" /></svg>